# xmcd
#
# Track frame offsets:
# 150
# 17724
# 41531
# 56626
# 73969
# 90353
# 106679
# 126286
# 144774
# 164599
#
# Disc length: 2422 seconds
#
#
# Revision: 0
# Processed by: cddbd v1.5PL3 Copyright (c) Steve Scherf et al.
# Submitted via: FreeRIP 2.53 
#
DISCID=8109740a
DTITLE=Mavericks, The - The Millinium Collection
DYEAR=1900
DGENRE=
TTITLE0=What A Crying Shame
TTITLE1=I Should Have Been True
TTITLE2=There Goes My Heart
TTITLE3=This Broken Heart
TTITLE4=All That Heaven Will Allow
TTITLE5=Here Comes The Rain
TTITLE6=All You Ever Do Is Bring Me Down
TTITLE7=Blue Moon
TTITLE8=Dance The Night Away
TTITLE9=Dream River
EXTD=
EXTT0=
EXTT1=
EXTT2=
EXTT3=
EXTT4=
EXTT5=
EXTT6=
EXTT7=
EXTT8=
EXTT9=
PLAYORDER=
